<?xml version="1.0" encoding="UTF-8"?>
<svg id="Camada_2" data-name="Camada 2" xmlns="http://www.w3.org/2000/svg" viewBox="0 0 544.98 135.75">
  <defs>
    <style>
      .cls-1 {
        fill: #f8f7f4;
      }
    </style>
  </defs>
  <g id="Camada_1-2" data-name="Camada 1">
    <g>
      <g>
        <path class="cls-1" d="M.31.46h11.49v64.96H.31V.46Z"/>
        <path class="cls-1" d="M78.22,46.24c0,14.36-7.23,19.18-11.68,19.18-9.08,0-12.42-3.61-20.39-20.39l-9.27-19.46c-2.78-5.93-10.56-23.91-10.1-6.12v45.96h-11.49V19.46C15.31,5.1,22.44.37,26.89.37c9.17,0,12.42,3.52,20.39,20.29l9.64,20.2c3.34,7.41,10.29,21.96,9.82,5.37V.37h11.49v45.87Z"/>
        <path class="cls-1" d="M102.85,11.86h-21.13V.37h53.84v11.49h-21.22v53.56h-11.49V11.86Z"/>
        <path class="cls-1" d="M166.77,65.42c-17.88-.19-32.34-14.64-32.34-32.52S148.98.37,166.96.37h23.44v11.49h-23.44c-11.58,0-21.03,9.36-21.03,21.03s9.45,21.03,21.03,21.03h23.44v11.49h-23.63ZM159.91,38.64v-11.49h21.59v11.49h-21.59Z"/>
        <path class="cls-1" d="M249.92,65.23h-14.26l-7.03-12.23c-3.87-6.02-7.64-14.55-11.82-14.55h-8.35c-4.58,0-8.35,3.43-8.35,7.6v19.18h-12.63v-19.18c0-10.56,9.37-19.09,20.98-19.09h17.01c11.1,0,11.1-15.29,0-15.29h-37.99V.19h37.99c23.02,0,29.13,29,7.94,36.88l16.5,28.17Z"/>
        <path class="cls-1" d="M298.27,38.18h-33.36v27.06h-11.49V.28h11.49v26.41h33.36V.28h11.49v55.24h-11.49v-17.35Z"/>
        <path class="cls-1" d="M359.65,65.42h-11.49V19.46c0-4.82-.74-7.97-3.89-7.97-5.28,0-10.01,8.15-12.14,11.58l-27.43,42.35h-13.71l27.43-42.35c9.45-14.64,15.57-23.07,28.17-23.07,7.78,0,13.07,7.23,13.07,19.46v45.96Z"/>
        <path class="cls-1" d="M384.28,11.86h-21.13V.37h53.84v11.49h-21.22v53.56h-11.49V11.86Z"/>
        <path class="cls-1" d="M423.37.46h11.49v64.96h-11.49V.46Z"/>
        <path class="cls-1" d="M441.25.56h11.49v45.87c0,4.91.74,7.97,3.89,7.97,5.28,0,10.01-8.06,12.14-11.58L496.2.56h13.71l-27.43,42.25c-9.45,14.64-15.66,23.07-28.17,23.07-7.78,0-13.07-7.13-13.07-19.46V.56Z"/>
        <path class="cls-1" d="M544.77,65.42h-11.49V19.46c0-4.82-.74-7.97-3.89-7.97-5.28,0-10.01,8.15-12.14,11.58l-27.43,42.35h-13.71l27.43-42.35c9.45-14.64,15.57-23.07,28.17-23.07,7.78,0,13.07,7.23,13.07,19.46v45.96Z"/>
      </g>
      <g>
        <path class="cls-1" d="M53.08,109.21c0,14.6-11.93,26.54-26.54,26.54S0,123.82,0,109.21s11.86-26.54,26.54-26.54,26.54,11.86,26.54,26.54ZM43.88,109.14c0-9.49-7.86-17.27-17.35-17.27s-17.35,7.78-17.35,17.27,7.86,17.42,17.35,17.42,17.35-7.93,17.35-17.42Z"/>
        <path class="cls-1" d="M58.63,119.89c0-8.45,6.82-15.27,15.27-15.27h12.38c8.01,0,8.01-12.23,0-12.23h-27.65v-9.19h27.65c8.45,0,15.27,6.82,15.27,15.27,0,7.86-5.86,14.31-13.49,15.2v.15h-14.16c-3.41,0-6.08,2.74-6.08,6.08v15.34h-9.19v-15.34Z"/>
        <path class="cls-1" d="M131.13,135.23c-14.31-.15-25.87-11.71-25.87-26.02s11.64-26.02,26.02-26.02h18.75v9.19h-18.75c-9.27,0-16.83,7.49-16.83,16.83s7.56,16.83,16.83,16.83h18.75v9.19h-18.9ZM125.64,113.81v-9.19h17.27v9.19h-17.27Z"/>
        <path class="cls-1" d="M201.83,135.23h-10.38l-5.11-9.79c-2.82-4.82-5.56-11.64-8.6-11.64h-6.08c-3.34,0-6.08,2.74-6.08,6.08v15.34h-9.19v-15.34c0-8.45,6.82-15.27,15.27-15.27h12.38c8.08,0,8.08-12.23,0-12.23h-27.65v-9.19h27.65c16.75,0,21.2,23.2,5.78,29.5l12.01,22.54Z"/>
        <path class="cls-1" d="M261.13,135.23h-9.19v-36.77c0-3.85-.59-6.38-3.11-6.38-4.23,0-8.01,6.52-9.71,9.27l-21.94,33.88h-10.97l21.94-33.88c7.56-11.71,12.45-18.46,22.54-18.46,6.23,0,10.45,5.78,10.45,15.57v36.77Z"/>
        <path class="cls-1" d="M294.41,135.23c-14.31-.15-25.87-11.71-25.87-26.02s11.64-26.02,25.95-26.02h18.83v9.19h-18.83c-9.27,0-16.75,7.49-16.75,16.83s7.49,16.83,16.75,16.83h18.83v9.19h-18.9Z"/>
        <path class="cls-1" d="M320.72,83.27h9.19v51.96h-9.19v-51.96Z"/>
        <path class="cls-1" d="M388.55,109.21c0,14.6-11.93,26.54-26.54,26.54s-26.54-11.93-26.54-26.54,11.86-26.54,26.54-26.54,26.54,11.86,26.54,26.54ZM379.36,109.14c0-9.49-7.86-17.27-17.35-17.27s-17.35,7.78-17.35,17.27,7.86,17.42,17.35,17.42,17.35-7.93,17.35-17.42Z"/>
        <path class="cls-1" d="M446.29,119.89c0,11.49-5.78,15.34-9.34,15.34-7.26,0-9.93-2.89-16.31-16.31l-7.41-15.57c-2.22-4.74-8.45-19.13-8.08-4.89v36.77h-9.19v-36.77c0-11.49,5.71-15.27,9.27-15.27,7.34,0,9.93,2.82,16.31,16.23l7.71,16.16c2.67,5.93,8.23,17.57,7.86,4.3v-36.69h9.19v36.69Z"/>
        <path class="cls-1" d="M502.95,135.23h-9.19v-36.77c0-3.85-.59-6.38-3.11-6.38-4.23,0-8.01,6.52-9.71,9.27l-21.94,33.88h-10.97l21.94-33.88c7.56-11.71,12.45-18.46,22.54-18.46,6.23,0,10.45,5.78,10.45,15.57v36.77Z"/>
        <path class="cls-1" d="M544.98,126.04v9.19h-19.27c-8.45,0-15.34-6.89-15.34-15.34v-36.62h9.19v36.62c0,3.41,2.74,6.15,6.15,6.15h19.27Z"/>
      </g>
    </g>
  </g>
</svg>